<?xml version="1.0" encoding="utf-8"?>
<!-- Generator: Adobe Illustrator 26.0.3, SVG Export Plug-In . SVG Version: 6.00 Build 0)  -->
<svg version="1.1" id="Layer_1" xmlns="http://www.w3.org/2000/svg" xmlns:xlink="http://www.w3.org/1999/xlink" x="0px" y="0px"
	 viewBox="0 0 600 2000" style="enable-background:new 0 0 600 2000;" xml:space="preserve">
<style type="text/css">
	.st0{fill:#171411;}
	.st1{fill:#BB5703;}
	.st2{fill:#1B1B1B;}
	.st3{fill:#B25303;}
	.st4{fill:#945927;}
	.st5{fill:#A9550F;}
	.st6{fill:#BB5C0C;}
	.st7{fill:#B25D16;}
	.st8{fill:#C5722D;}
	.st9{fill:#B15B14;}
	.st10{fill:#9E5921;}
	.st11{fill:#010101;}
	.st12{fill:#BD5D0C;}
	.st13{fill:#BD5B09;}
	.st14{fill:#BD5C0B;}
	.st15{fill:#BD5C0A;}
	.st16{fill:#BE5E0E;}
	.st17{fill:#BF6010;}
	.st18{fill:#020101;}
	.st19{fill:#111010;}
	.st20{fill:#111111;}
</style>
<g>
	<path class="st0" d="M517.9,1857.4c-2.9,1.1-5.9,0.7-8.8-0.1c-1.1-1.1-2.4-2.2-3.4-3.5c-2.2-2.7-3.4-2.1-4,1.1
		c-0.2,1-0.4,1.9-0.6,2.9c-3.5,3.7-7.1,4.6-11.3,1c-0.9-0.8-2.1-1.5-3.2-1c-1.4,0.7-0.5,2-0.3,3.1c0.5,2.4-0.5,3.2-2.6,2.4
		c-2.9-1.1-6.1-2-7-5.6c-0.9-1.9-2-4.2-4.1-4.3c-1.9-0.1-2.5,2.2-2.8,4c-0.5,0.3-1,0.6-1.5,0.8c-1-0.2-2-0.1-2.5,1
		c-0.7,0.4-1.3,0.4-2,0c-2.1-1.2-3.3-0.6-3.4,1.7c0,0.7,0,1.5,0.1,2.2c-1.1,1.2-1,2.2,0.5,2.9c0.6,1,0.7,2,0.5,3.1
		c-0.9,2.1-1.5,4.2,0.7,5.9c0.7,1.3,0.5,2.6-0.8,3.3c-1.1,0.7-2.1,0.1-2.7-1.1c0.1-1-0.1-1.9-1.2-2.3c-3-1.9-5.2,1.2-7.9,1.3
		c-3.3,0.6-6.8-0.1-9.8,1.9c-1.5,0.6-2.8,0.1-3.9-1c-1.6-1.9-3-2.1-4.1,0.5c-0.3,0.8-0.8,1.3-1.7,1.3c-1-0.1-1.9,0-2.3,1.2
		c-0.7,0.2-1.4,0.4-2,0.6c-1.8-1.4-2.8,0.1-3.9,1.1c-2,0.7-3.9,1.2-6.1,0.9c-2.9-1.6-5.2-1.2-7,1.7c-0.5,1-1.3,1.5-2.5,1.6
		c-1.4-0.1-3-0.6-3.5,1.4c-0.9,0.5-1.7,0.9-2.6,1.4c-1.8,0.6-2.1,3.4-4.5,3.1c-1.4-0.5-2.2-1.7-2.9-2.9c-0.6-1.2-1.6-1.2-2.2-0.2
		c-1,1.7-1.6,3.6,0.4,5.1c0.6,1,0.7,2,0.5,3.1c0.3,5.3-1.9,10.6,0.1,15.8c0.3,1.7,0.1,3.4-0.6,5c-1.7,1.1-1.4,2.4-0.6,3.9
		c-0.1,0.7-0.2,1.4-0.3,2.1c-2.4,5.7-3.9,11.6-5,17.6c-1.5,3-0.9,6.8-3.6,9.4c-1.7,0.2-1.7,1.5-1.6,2.8c-0.5,0.4-0.9,0.8-1.4,1.2
		c-1.2,0.2-1.6,1-1.6,2.1c-0.5,0.6-0.9,1.3-1.4,1.9c-2,0.4-3.4,2.7-5.8,1.9c1.3-4.3,5.3-6.7,7.5-10.3c5.9-9.4,6.8-20.2,9.3-30.6
		c1.3-0.5,1.7-1.1,0.4-2c-0.1-2,0-4,0.8-6c2-1.6,1.5-3.3,0.3-5c1.1-5.1-3.4-6.9-6-9.7c0.7-0.5,1.3-1,2-1.5c1.3,0.1,3.6,2.5,3.4-0.8
		c-0.5-6.6-1.7-13.1-2.6-19.7c-4.1,4.1-6.1,8.9-9.4,12.7c-0.7,0.2-1.4,0.6-0.9,1.3c0.2,0.4,1.1,0.4,1.7,0.6c1.9,1.4,3.9,2.7,5.8,4.1
		c-0.1,1.1-0.5,1.9-1.6,2.3c-2.4-1.4-4.8-3.8-7.3-3.9c-3.1-0.1-2.7,4.3-4.9,6.1c-3.7,3-7.3,6.2-10.6,9.6c-6.6,6.8-14.4,9.4-23.7,8.1
		c0.3-0.7,0.7-1.5,1-2.2c1,0,2,0,3,0.1c1.1,1.3,2.2,1.3,3-0.3c11.8-5.5,21-14,28.2-24.8c1.1-0.8,2.7-1,2.9-2.8
		c0.4-0.7,0.8-1.5,1.2-2.2c1.5-0.3,1.7-1.3,1.5-2.5c0.5-1.7,1.5-3.2,2.7-4.5c1.1-0.2,1.5-0.9,1.5-1.9c1.4-4.1,5.3-7.3,4.4-12.3
		c0.6-1.3,0.6-2.3-0.9-2.9c-0.4-0.9-0.9-1.9-1.3-2.8c-0.6-3.4-0.9-6.8-2.5-9.9c0.1-0.4,0.3-0.9,0.4-1.3c1.3-2.1,0.1-3.6-1.2-5
		c-0.6-0.9-0.8-1.9-0.7-3c1.2-1.1,0.6-1.6-0.6-2c-0.2-0.7-0.4-1.3-0.5-2c1.3-1.1,0.7-1.6-0.5-2c-1-4.7-1.9-9.5-2.9-14.2
		c0.3-1.1,0.4-2-0.7-2.8c-1.1-3.2-1.7-6.5-1.3-9.8c0.2-2.4-2-5.8,0.6-6.8c2.4-0.9,5.2,1.3,7.2,3.4c-1.2,0.6-1.4,1.6-1.4,2.8
		l-0.4-0.1l-0.1-0.4c-1.8,0.4-3.5,0.9-1.2,2.9c2.6,13.4,5.3,26.8,7.9,40.2c1.1,3-0.2,6.7,2.6,10.1c1.5-3.6,2-6.8,2-10
		c2-14.9-0.4-28.8-9.3-41.2c1.2-0.2,2.5,0.1,3.3-1c3.6,4.1,6.2,8.8,7.5,14.1c0,3.5,0.8,6.9,2.8,9.9c0.9,1.9,0.9,4,0.7,6
		c-1.8,3.9-0.6,8.1-0.8,12.1c-0.4,3.4-0.9,6.7-1.3,10.1c-4.1,6.7-3.1,13.6-1.4,20.7c1.6,6.9,1.4,7,7.6,4.9c0.9,1.4,1.6,1.1,2.1-0.3
		c3.3-1.1,8.1,0.1,8.5-5.5c1-0.1,1.9-0.1,2.9-0.2c6.3,0.3,12.8,2.5,18.2-2.8c1.2-0.4,1.9-0.9,0.6-2c1.8-4,3.2-4.2,5.6-1
		c1.1,1.5,1.3,3.8,3.8,4.1c6.6,0.9,12.6-1.5,17-5.4c3.3-3,0.2-8.1-0.9-12.2c-0.3-3.6-1-7.1-2.7-10.3c-0.5-2.8-1.1-5.5-1.4-8.3
		c-0.1-1.3-1-3.3,1.1-3.7c1.6-0.3,2.7,1,3.3,2.6c1,3.2,2,6.3,3,9.5c1,3.2,1.1,8.1,5.1,8c3.7-0.2,3.9-4.6,3.8-8
		c0.6-2.2,0-4.3-0.2-6.4c-0.7-5.6-2.8-11-2.6-16.7c0.1-1.7-1.6-4.5,1.5-4.9c2.7-0.4,3.2,2.4,3.9,4.4c0.4,1.1,0.5,2.3,0.7,3.4
		c1.4,6.7,2.7,13.3,4.1,20c0.4,0.9,0.6,2,1.2,2.5c1.9,1.5,1.4,6.2,4.3,5c2.7-1.1,1.1-4.9,0.5-7.5c-0.1-1.6-0.1-3.3-0.1-4.9
		c0-1.7-0.1-3.5,2.2-3.6c1.9-0.1,3,1.2,3.4,2.9c0.5,1.9,0.8,3.8,1.1,5.8c0.2,2.5,1.3,4.7,2.8,6.7c1.1,1.5,2.3,3,4.4,2.5
		c1.8-0.4,2.6-1.9,3.1-3.5c0.6-1.9,1.3-3.7,1.9-5.5c2.2-1.9,4.4-0.7,6.5,0.1c1,1.1,2.1,2.1,2.9,3.3c2.2,3,5.4,3.1,8,1.5
		c3.4-2.1,7.1-3.3,10.5-5.3c3.4-1.5,6.1-4.1,9.1-6.2c6.6-2.9,13.2-5.9,19.7-9c14.4-6.8,29.1-11.4,45.2-9.9c0,1.3,0,2.7,0,4
		c-13.2-0.1-25.8,2.7-38.1,7.4c-9.6,3.6-18.7,8.1-26.9,14.3c-5.9,1.1-10.1,5.5-15.1,8.3C519.7,1856.1,518.4,1855.9,517.9,1857.4z"/>
	<path class="st1" d="M536.1,1840.9c-3,2.1-5.7,4.7-9.1,6.2c-0.3-0.7-0.5-1.4-0.8-2.2c0-2.2-0.1-4.3-0.1-6.5
		c0-200.2,0-400.3,0.1-600.5c0-5-1.1-6.2-6.2-6.2c-146.7,0.2-293.3,0.2-440,0c-4.9,0-6.2,1-6.2,6.1c0.2,200.8,0.1,401.7,0.1,602.5
		c0,7,0,7,6.7,7c97.3,0,194.7,0,292,0c2,0,4-0.1,6-0.1c1.7,3.1,2,6.5,2.5,9.9c-1.8,0.1-3.7,0.2-5.5,0.2c-101.1,0-202.3,0-303.4,0
		c-8.4,0-9.3-0.9-9.3-9c0-205.8,0-411.6,0-617.4c0-8.4,1.6-10,10.1-10c151.5,0,302.9,0,454.4,0c6.2,0,8.6,2.3,8.6,8.6
		C536.1,1433.3,536.1,1637.1,536.1,1840.9z"/>
	<path class="st2" d="M372.1,1886.2c-0.1,1.8-1.7,2-2.9,2.8c-3.5-1.1-7.1-2-10.4-3.5c-23.3-10.8-50.5,0.1-61.4,24.6
		c-9,20.3-5.6,46.3,17.6,56.9c0.8,3,3.6,3,5.7,4c2.7,1.3,5.9,0.8,8.3,3c-14.5-2.6-27.5-8.2-35.5-21.1c-4.6-7.3-4.5-16.2-4.6-24.7
		c-0.3-15,6.2-27.3,16.1-37.9c11.4-12.3,36.7-16.5,52.6-9.7C362.3,1882.7,366.6,1886,372.1,1886.2z"/>
	<path class="st0" d="M329,1974c-2.3-2.1-5.6-1.7-8.3-3c-2.1-1-5-1.1-5.7-4c7,1.6,14,3.3,21,4.9c0.9,1.3,1.9,1.4,3,0.2
		c1.4,0,2.7,0,4.1,0c0.8,1.1,1.5,0.8,2-0.3c3.2-0.9,6.5-1.7,9.7-2.6c0.8,2.5-1.9,2.5-2.8,3.8c-0.4,0.1-0.9,0.1-1.3,0.2
		c-1.3-0.2-2.7-0.5-3.7,0.9c-0.7,0.1-1.5,0.2-2.2,0.2c-1-0.3-2-0.3-2.7,0.7c-0.7,0-1.3,0.1-2,0.1c-3.1-1.7-6.5-0.8-9.7-0.8
		C329.9,1974.2,329.4,1974.1,329,1974z"/>
	<path class="st3" d="M520.8,1856c5-2.8,9.2-7.2,15.1-8.3c0.4,8.5-0.7,9.7-9.2,9.7c-2,0-3.9-0.1-5.9-0.2
		C520.9,1856.8,520.9,1856.4,520.8,1856z"/>
	<path class="st4" d="M501.1,1857.7c0.2-1,0.5-1.9,0.6-2.9c0.6-3.1,1.8-3.7,4-1.1c1,1.2,2.3,2.3,3.4,3.5
		C506.4,1857.4,503.7,1857.6,501.1,1857.7z"/>
	<path class="st2" d="M391.8,1912.9c-2-5.3,0.2-10.6-0.1-15.8C394.4,1902.4,391.5,1907.7,391.8,1912.9z"/>
	<path class="st2" d="M385.2,1941.6c1.2-6,2.6-12,5-17.6C389.5,1930.1,388,1936,385.2,1941.6z"/>
	<path class="st5" d="M469.9,1857.3c0.3-1.8,0.9-4.1,2.8-4c2.1,0.1,3.2,2.4,4.1,4.3C474.4,1857.5,472.2,1857.4,469.9,1857.3z"/>
	<path class="st0" d="M371,1964c-0.6,2.7-2.6,3.6-5.1,3.7c-0.3-1-0.7-1.9-1-2.9c1-1.4,2.4-2.4,4-3.1
		C369.6,1962.5,370.3,1963.2,371,1964z"/>
	<path class="st2" d="M352,1973c0.9-1.3,3.6-1.2,2.8-3.8c1.1-0.5,2.1-1,3.2-1.5c0,1.5,0.9,2.2,2.3,2.3
		C357.8,1971.9,355.1,1973,352,1973z"/>
	<path class="st2" d="M439.9,1878.2c3-1.9,6.6-1.3,9.8-1.9C446.8,1878.4,443.4,1878.6,439.9,1878.2z"/>
	<path class="st2" d="M330.3,1974.2c3.3,0.1,6.6-0.9,9.7,0.8C336.7,1975.5,333.4,1975.8,330.3,1974.2z"/>
	<path class="st2" d="M371,1964c-0.7-0.7-1.4-1.5-2.1-2.2c0.3-0.3,0.6-0.5,0.9-0.8c2.4,0.8,3.8-1.6,5.8-1.9
		C374.6,1961.2,372.8,1962.6,371,1964z"/>
	<path class="st0" d="M360.2,1970.1c-1.4-0.2-2.3-0.8-2.3-2.3c1.7-0.6,3.4-1.2,5.1-1.8c0,1,0,2.1,0,3.1
		C362.3,1969.9,361.3,1970.1,360.2,1970.1z"/>
	<path class="st2" d="M409,1884.6c1.7-2.9,4.1-3.4,7-1.7C413.6,1883.3,411.1,1883.1,409,1884.6z"/>
	<path class="st2" d="M391.2,1894c-2-1.5-1.5-3.4-0.4-5.1c0.6-1,1.6-1,2.2,0.2C389.9,1889.9,391.9,1892.4,391.2,1894z"/>
	<path class="st2" d="M462.4,1875c-2.3-1.7-1.6-3.8-0.7-5.9C462.6,1871,462.7,1873,462.4,1875z"/>
	<path class="st2" d="M395.9,1892c2.4,0.3,2.7-2.5,4.5-3.1C399.4,1890.8,399.8,1894.6,395.9,1892z"/>
	<path class="st2" d="M363,1969c0-1,0-2.1,0-3.1c0.4-0.8,1.1-1.1,1.9-1.2c0.3,1,0.7,1.9,1,2.9C364.9,1968.1,364,1968.6,363,1969z"/>
	<path class="st2" d="M422,1882c1.1-1,2.1-2.5,3.9-1.1C424.7,1881.4,423.6,1882.4,422,1882z"/>
	<path class="st2" d="M460.7,1860.9c0.1-2.3,1.3-3,3.4-1.7C462.8,1859.5,461.5,1859.8,460.7,1860.9z"/>
	<path class="st2" d="M431.9,1877.7c1.1-2.6,2.5-2.4,4.1-0.5C434.6,1877.2,433.2,1876.8,431.9,1877.7z"/>
	<path class="st2" d="M390.6,1921.9c-0.8-1.4-1.1-2.8,0.6-3.9C391.2,1919.3,391.3,1920.7,390.6,1921.9z"/>
	<path class="st4" d="M520.8,1856c0,0.4,0.1,0.8,0.1,1.2c-1,0.5-2,0.7-3.1,0.2C518.4,1855.9,519.7,1856.1,520.8,1856z"/>
	<path class="st2" d="M403,1887.6c0.6-2,2.1-1.5,3.5-1.4C405.5,1887.1,404.3,1887.5,403,1887.6z"/>
	<path class="st2" d="M347,1974.1c1-1.4,2.4-1,3.7-0.9C349.6,1974.2,348.3,1974.4,347,1974.1z"/>
	<path class="st2" d="M461.2,1866c-1.5-0.8-1.6-1.7-0.5-2.9C461.3,1864,461.5,1865,461.2,1866z"/>
	<path class="st2" d="M380,1953.8c0-1.3-0.1-2.5,1.6-2.8C381.5,1952.1,381.1,1953.2,380,1953.8z"/>
	<path class="st2" d="M428,1880.3c0.4-1.1,1.2-1.3,2.3-1.2C429.7,1880,429,1880.4,428,1880.3z"/>
	<path class="st2" d="M374.8,1881.5c0.2,1.3,0,2.3-1.5,2.5C373.5,1883,373.9,1882.1,374.8,1881.5z"/>
	<path class="st2" d="M377,1957.1c0-1.1,0.3-1.9,1.6-2.1C378.4,1955.9,377.9,1956.7,377,1957.1z"/>
	<path class="st2" d="M382.5,1860c1.6,0.5,1.5,1.6,0.9,2.9C382.8,1862,382.3,1861.1,382.5,1860z"/>
	<path class="st2" d="M379,1875.1c0,1-0.4,1.7-1.5,1.9C377.6,1876.1,378,1875.4,379,1875.1z"/>
	<path class="st2" d="M466,1859.2c0.5-1.1,1.4-1.2,2.5-1C467.9,1859.2,467.1,1859.5,466,1859.2z"/>
	<path class="st2" d="M457.7,1875c1.1,0.4,1.3,1.2,1.2,2.3C457.9,1876.8,457.7,1876,457.7,1875z"/>
	<path class="st2" d="M342,1975c0.7-1,1.7-0.9,2.7-0.7C344,1975.2,343.1,1975.3,342,1975z"/>
	<path class="st6" d="M454.7,1857.5c-21.3-0.1-42.6-0.2-63.9-0.3c0.4-3.4,0.9-6.7,1.3-10.1c0,0,0.4-0.1,0.4-0.1l0.4,0.1
		c19.7,0,39.4,0.1,59.1,0.1C453.7,1850.5,454.4,1854,454.7,1857.5z"/>
	<path class="st7" d="M486.9,1847.3c4.1,0.1,8.1,0.1,12.2,0.2c-0.6,1.8-1.3,3.7-1.9,5.5c-0.5,1.7-1.3,3.1-3.1,3.5
		c-2.1,0.5-3.3-1.1-4.4-2.5C488.2,1852,487.2,1849.8,486.9,1847.3z"/>
	<path class="st8" d="M505.6,1847.6c5.5-0.9,11.1-0.2,16.6-0.4c1.7-0.1,3.8,0.4,4-2.3c0.3,0.7,0.5,1.4,0.8,2.2
		c-3.4,2-7.1,3.2-10.5,5.3c-2.6,1.6-5.8,1.4-8-1.5C507.7,1849.7,506.6,1848.7,505.6,1847.6z"/>
	<path class="st9" d="M458,1847.3c3,0,5.9-0.1,8.9-0.1c0.2,3.4-0.1,7.9-3.8,8C459.1,1855.5,459,1850.5,458,1847.3z"/>
	<path class="st10" d="M474.3,1847.1c2,0,4,0,6,0c0.6,2.6,2.2,6.3-0.5,7.5c-2.9,1.2-2.4-3.5-4.3-5
		C474.8,1849.1,474.7,1848,474.3,1847.1z"/>
	<path class="st5" d="M383.3,1847.2c1.5,0,3.1,0.1,4.6,0.1c0,3.2-0.5,6.4-2,10C383.1,1853.9,384.4,1850.3,383.3,1847.2z"/>
	<path class="st2" d="M392.9,1847.2l-0.4-0.1c0,0-0.4,0.1-0.4,0.1c0.2-4-1-8.2,0.8-12.1C394,1839.1,392.6,1843.1,392.9,1847.2z"/>
	<path class="st2" d="M389.5,1819.2c1.8,3,2.9,6.3,2.8,9.9C390.3,1826,389.5,1822.7,389.5,1819.2z"/>
	<path class="st2" d="M378.7,1806.1c-0.5-0.5-1.1-1-1.6-1.5c0-1.2,0.2-2.2,1.4-2.8c1.6,0.6,2.7,1.8,3.5,3.3
		C381.1,1806.2,379.8,1805.9,378.7,1806.1z"/>
	<path class="st2" d="M334,1916.2c-1.7,0.2-4.1,0.3-3.7-1.7c0.5-2,3-1.3,4.7-0.5C334.7,1914.7,334.3,1915.5,334,1916.2z"/>
	<path class="st2" d="M387.8,1912c-0.3-1.7-0.5-3.4,0.3-5C389.3,1908.8,389.8,1910.5,387.8,1912z"/>
	<path class="st2" d="M379.1,1846c-1.1-1.5-1.4-3.2-1.2-5C379.1,1842.4,380.4,1843.9,379.1,1846z"/>
	<path class="st2" d="M338,1914.1c1-0.5,2-0.6,3-0.3C340.2,1915.4,339.2,1915.4,338,1914.1z"/>
	<path class="st2" d="M382,1894c1.1,0.1,1.8,0.7,2.1,1.8c-0.7,0.5-1.3,1-2,1.5c-0.5-0.4-1.1-0.7-1.6-1.1
		C381.5,1895.9,381.9,1895,382,1894z"/>
	<path class="st2" d="M376.6,1804.1c-1,0.7-0.9,1.9-1.2,2.9C373.1,1805,374.8,1804.5,376.6,1804.1z"/>
	<path class="st2" d="M376.1,1834c-0.2-0.7-0.3-1.3-0.5-2C376.8,1832.4,377.4,1832.9,376.1,1834z"/>
	<path class="st2" d="M372.6,1817.8c-0.8-0.8-1-1.7-0.7-2.8C373,1815.7,373,1816.7,372.6,1817.8z"/>
	<path class="st2" d="M386.7,1920c-0.4-0.8-0.2-1.4,0.4-2C388.3,1918.9,387.9,1919.6,386.7,1920z"/>
	<path class="st2" d="M397,1882.9c0.6-0.6,1.3-0.7,2.1-0.3C398.5,1884,397.9,1884.3,397,1882.9z"/>
	<path class="st2" d="M428.5,1874c-0.2-0.8,0-1.4,0.6-2C430.4,1873.2,429.7,1873.7,428.5,1874z"/>
	<path class="st2" d="M375.5,1888c0.2,0.6,0.5,1.3,0.7,1.9c-0.6-0.2-1.5-0.2-1.7-0.6C374.1,1888.5,374.8,1888.2,375.5,1888z"/>
	<path class="st2" d="M377.2,1837.9c-0.6-0.5-0.8-1.2-0.6-2C377.8,1836.3,378.4,1836.9,377.2,1837.9z"/>
	<path class="st2" d="M407.5,1877c0.8-2.5,1.8-1.3,2.9-0.2C409.4,1876.9,408.4,1877,407.5,1877z"/>
	<path class="st2" d="M336,1972c1-0.3,2-0.4,3,0.2C337.9,1973.3,336.9,1973.2,336,1972z"/>
	<path class="st2" d="M343,1972.1c0.6-0.5,1.3-0.7,2-0.3C344.5,1972.9,343.9,1973.1,343,1972.1z"/>
	<path class="st11" d="M343.6,1523.5c5.1-10.4,10.8-18.9,13.8-28.8c1.3-4.2,3.5-8.2,5.7-12.1c3.6-6.2,5.9-12.9,9-19.3
		c8.4-17.1,16.1-34.5,24.2-51.7c4.4-9.4,9.6-18.5,13.2-28.2c2.5-6.9,6.4-13.1,8.9-19.9c1.1-3.1,3.1-4.5,6.3-4.5c15.7,0,31.3,0,47,0
		c3.2,0,4.5,1.1,4.5,4.7c-0.1,95.8-0.1,191.6,0,287.4c0,3.9-1,5.2-5,5.1c-10-0.3-20-0.2-30,0c-3.4,0.1-4.4-1.2-4.2-4.3
		c0.1-2,0-4,0-6c0-77.5,0-155,0-232.5c0-4.1,0.1-8.2-0.8-12.7c-6.3,10.4-10.5,21.2-15.7,31.6c-7.7,15.2-14.8,30.7-22,46.2
		c-5.1,10.9-11.3,21.2-15.3,32.6c-2.1,6-5.7,11.6-8.5,17.4c-3.6,7.6-7.3,15.1-10.7,22.8c-2.4,5.6-6.3,10.4-7.6,16.6
		c-0.8,3.8-3.9,5.9-8.2,5.7c-3.8-0.2-7.7-0.4-11.5,0.1c-5.2,0.6-7.8-2.1-10-6.3c-7.5-14.3-14.1-29.2-20.8-43.9
		c-6.2-13.5-13.5-26.5-18.8-40.5c-2.2-5.9-6-11.1-8.3-16.9c-4.1-10.1-10.2-19.4-14-29.4c-3.6-9.4-8.7-17.7-12.8-26.7
		c-1.4-3-1-6.6-4.5-9.6c0,4.1,0,7.6,0,11.1c0,79.2,0,158.3,0,237.5c0,7.2,0,7.2-7.3,7.2c-8,0-16-0.2-24,0.1
		c-4.1,0.2-5.4-1.1-5.4-5.3c0.2-21,0.1-42,0.1-63c0-74.2,0-148.3,0-222.5c0-6.4,0-6.5,6.7-6.5c13.7,0,27.3,0.2,41-0.1
		c4.5-0.1,6.8,1.6,8.7,5.6c7.4,15.6,15.5,30.8,22.5,46.6c4.2,9.5,10,18.4,13.6,28c3.5,9.4,9.6,17.5,12.8,26.7
		c3.6,10.3,10.3,19,13.9,29C333.2,1504.6,338.9,1512.9,343.6,1523.5z"/>
	<path class="st11" d="M123.9,1539.8c0-59.7,0-119.3,0-179c0-7,0-7,6.8-7c11.8,0,23.7,0,35.5,0c6.7,0,6.7,0,6.7,6.7
		c0,105,0,210,0,315c0,6.7,0,6.8,6.7,6.8c56.3,0,112.7,0.1,169,0c40.8,0,81.7-0.2,122.5-0.4c4,0,5.2,1.1,5.1,5.1
		c-0.2,11.8-0.1,23.7,0,35.5c0,2.9-0.9,4-3.7,3.8c-1-0.1-2,0-3,0c-113,0-226,0-339,0c-6.7,0-6.7,0-6.7-6.9
		C123.9,1659.5,123.9,1599.7,123.9,1539.8z"/>
	<path class="st12" d="M412.8,1807.3c3.3-16.2,9.2-30.7,11.3-46.3c0.6-4.6,2-9.1,3.5-13.5c1.3-3.9,4.9-1.6,7.4-2.1
		c2.7-0.5,3.3,1.4,3.8,3.5c4.3,17.6,10.2,34.7,13.1,52.7c0.3,1.8,0.9,3.5,1.4,5.4c2.1-2.1,1.8-4.8,2.6-7.1
		c5.2-16.3,7.9-33.2,12.3-49.8c1.1-4.2,5-6.2,8.9-4.6c2.2,0.9,0.9,2.5,0.8,3.8c-1.1,10.1-4.3,19.8-7.2,29.4
		c-3.6,12.2-6.7,24.6-9.1,37.1c-0.9,4.5-3.1,5.2-7.2,5.2c-3.9,0-5.8-0.8-6.8-5c-2.8-11.8-6.6-23.3-9.4-35.1
		c-1.7-6.8-2.2-13.9-5.1-21.4c-3.1,12.2-7.3,23.5-9,35.3c-1.2,8.3-3.8,16.2-6,24.2c-1.1,4.1-5.5,1.4-8.3,1.9
		c-2.7,0.6-3.2-1.4-3.8-3.5c-3.9-14.1-8-28.1-11.1-42.4c-1.9-8.6-4.8-16.9-7.2-25.4c-0.4-1.4-1.8-3.9,0.8-3.9c2.8,0,7.3-2.7,8.6,1.8
		c4.7,16.3,9,32.7,13.3,49.1C411.3,1799.7,410.6,1803.2,412.8,1807.3z"/>
	<path class="st13" d="M295.9,1783.1c-0.1-11.2,2.6-21.7,10.7-29.6c10-9.8,22.5-11.9,35.6-7.5c14.3,4.8,20.6,16.2,22.5,30.2
		c1.6,12-0.2,23.6-7.7,33.6c-5.4,7.3-12.7,11.5-21.9,12.2c-9.9,0.8-19.4-0.5-27-7.5C299.1,1806,295.8,1795.2,295.9,1783.1z
		 M306,1784.9c-0.2,4.3,0.9,9.9,3.5,15.2c4.4,8.9,11.7,12.9,21.3,12.8c9.4-0.1,16.6-4.2,20.8-12.9c4.4-9.1,4.9-18.9,2.1-28.2
		c-3.7-12.3-8.6-17.1-21.2-18.5c-10.3-1.2-18.8,4.1-23.5,14C306.5,1772.4,306,1777.8,306,1784.9z"/>
	<path class="st14" d="M268.9,1783c0,11.3-0.2,22.7,0.1,34c0.1,4.3-2.2,3.9-5,3.9c-2.9,0-5,0.1-4.9-4c0.3-9.8,0-19.7,0.2-29.5
		c0-3.1-1-4-4-4c-9.7,0.2-19.3,0.2-29,0c-3.5-0.1-4.2,1.4-4.1,4.4c0.1,9.7-0.2,19.3,0.2,29c0.2,4.6-2.5,4.1-5.4,4
		c-2.6-0.1-5.6,1.1-5.6-3.8c0.2-22.5,0.2-45,0-67.5c-0.1-5,2.8-4.1,5.7-4.2c3.2-0.2,5.4,0,5.2,4.3c-0.4,7,0.1,14-0.2,21
		c-0.1,3.6,1.2,4.5,4.6,4.4c9.3-0.2,18.7-0.3,28,0c4,0.1,4.7-1.3,4.6-4.9c-0.3-6.7,0.2-13.3-0.2-20c-0.2-4,1.1-4.9,5-5
		c4.3-0.1,4.9,1.7,4.8,5.3C268.7,1761.3,268.9,1772.2,268.9,1783z"/>
	<path class="st15" d="M153.3,1822c-6.7,0.7-13.7-1.4-20.6-3.8c-4.2-1.5-6.8-9.5-4.6-13.3c1-1.7,1.7-0.3,2.6,0.3
		c10.7,6.3,22.1,9.9,34.6,6.3c6.5-1.9,9.3-5.7,9.1-11.4c-0.2-5.1-3.7-8.7-9.8-10.3c-8.3-2.3-16.9-3.1-25.1-6.2
		c-4.8-1.8-7.5-4.3-9.4-9.1c-5.8-15.1,3.8-25.9,17.5-29.2c11.1-2.6,21.8-0.3,32.2,3.7c2.3,0.9,4.2,10.6,2.2,11.8
		c-1.6,1-2.6-0.9-3.9-1.5c-10.2-4.7-20.6-7.5-31.8-3.9c-5.5,1.8-8,5.4-7.9,10.2c0.1,4.5,3.7,9,8.7,10.3c6.1,1.6,12.4,2.6,18.5,4.1
		c4,1,8.1,2,11.7,3.9c3.5,1.8,6.3,4.6,6.6,9.3C185.4,1812.7,176,1822,153.3,1822z"/>
	<path class="st16" d="M298.1,1292.9c0-11,0.1-22-0.1-33c-0.1-3.3,0.6-4.7,4.3-4.6c13.5,0.2,27,0.3,40.5,0c4.5-0.1,4,2.4,4.2,5.3
		c0.2,3.3-0.5,4.7-4.3,4.6c-10.2-0.3-20.3,0-30.5-0.2c-3.3-0.1-4.9,0.7-4.6,4.4c0.5,4.9-2,11.3,0.9,14.5c2.9,3.2,9.4,0.9,14.4,1
		c6.8,0.2,13.7,0.2,20.5,0c3.6-0.1,3.5,1.8,3.6,4.3c0,2.7-0.2,4.3-3.7,4.3c-10.2-0.2-20.3,0.1-30.5-0.1c-3.7-0.1-5.4,0.7-5.2,4.9
		c0.3,6.1,0.3,12.3,0,18.5c-0.2,3.7,1.3,4.5,4.6,4.4c10.2-0.2,20.3,0.2,30.5-0.2c4.5-0.1,4.1,2.3,4.2,5.3c0.1,3.2-0.4,4.8-4.2,4.7
		c-13.5-0.2-27-0.2-40.5,0c-3.7,0.1-4.4-1.3-4.3-4.6C298.2,1315.2,298.1,1304.1,298.1,1292.9z"/>
	<path class="st17" d="M266.7,1293.3c0,11.2-0.2,22.3,0.1,33.5c0.1,4.6-2.4,4-5.3,4.2c-3.3,0.2-4.7-0.6-4.6-4.3
		c0.3-9.7,0-19.3,0.2-29c0.1-3.3-1.1-4.3-4.3-4.2c-9.5,0.2-19,0.2-28.5,0c-3.2-0.1-4.4,0.9-4.3,4.2c0.2,9.7-0.2,19.3,0.2,29
		c0.2,4.4-2.1,4.3-5.2,4.3c-3.2,0.1-4.8-0.4-4.7-4.2c0.2-22.3,0.2-44.6,0-67c0-4.1,1.6-4.5,5-4.5c3.6-0.1,5.1,0.8,4.9,4.7
		c-0.3,7,0,14-0.1,21c-0.1,2.8,0.5,4.2,3.8,4.1c9.8-0.2,19.7-0.2,29.5,0c3.3,0.1,3.8-1.3,3.8-4.1c-0.2-7,0.2-14-0.1-21
		c-0.2-3.9,1.2-4.8,4.8-4.7c3.4,0.1,5.2,0.4,5.1,4.6C266.5,1271,266.7,1282.1,266.7,1293.3z"/>
	<path class="st13" d="M152.9,1298c0-9.7-0.1-19.3,0.1-29c0.1-3.1-0.8-4.1-3.9-3.9c-6.5,0.2-13-0.2-19.5,0.2
		c-4.3,0.2-3.5-2.5-3.4-4.8c0.1-2.3-1.1-5.1,3.3-5c18.7,0.2,37.3,0.2,56,0c4.4,0,3.7,2.6,3.8,5.2c0,2.6,0.4,4.9-3.6,4.7
		c-6.1-0.3-12.3,0.1-18.5-0.2c-3.5-0.1-4.5,0.9-4.5,4.4c0.2,18.8,0,37.7,0.2,56.5c0,4-1,5-5,5.1c-4,0-5-1.2-4.9-5
		C153.1,1316.7,152.9,1307.3,152.9,1298z"/>
	<path class="st18" d="M504.7,1363c0.6,2.1,1.2,4.1,1.8,6.5c2.2-2.5,2-5.4,2.6-8c0.7-3,2.4-3.6,5-3.4c3.1,0.2,1.9,2.6,2,4.1
		c0.2,3.5,0,7,0.1,10.5c0,1.4,0,2.6-2,2.6c-1.9-0.1-2-1.2-2-2.6c0.1-1.8,0-3.6,0-6.2c-2.1,2.3-2,4.5-2.6,6.4
		c-0.5,1.6-1.2,2.5-3.1,2.5c-2.1-0.1-2.4-1.6-2.6-3c-0.2-1.6-0.1-3.3-0.2-5c0-1.2-0.7-1.3-1.6-0.9c-0.2-1.5-1.9-3.1-0.4-4.5
		C503,1360.9,503.5,1363.3,504.7,1363z"/>
	<path class="st19" d="M489.5,1358.1c0.8,0,1.7-0.1,2.5,0c1.5,0.2,4.1-0.9,4.3,1.1c0.3,2.6-2.4,1.4-3.8,1.6
		c-2.2,0.2-1.6,1.7-1.6,2.9c-0.1,3,0,6,0,9c0,1.1,0.3,2.5-1.5,2.5c-1.7,0-1.7-1.1-1.7-2.4c0-2.8-0.1-5.7,0-8.5
		c0.1-2.4-0.3-3.9-3.1-3.6c-1.1,0.1-2.7,0.2-2.5-1.5c0.2-1.5,1.8-1.2,2.9-1.2C486.5,1358,488,1358.1,489.5,1358.1z"/>
	<path class="st20" d="M504.7,1363c-1.2,0.3-1.7-2.1-2.8-1.1c-1.5,1.4,0.2,3,0.4,4.5c0.1,2.2,0.1,4.3,0.3,6.5
		c0.1,1.3-0.1,2.3-1.7,2.3c-1.4,0-2.2-0.4-2.2-1.9c0-4.3,0-8.6,0-13c0-1.5,0.8-2.2,2.2-2c1.2,0.1,2.8-0.7,3.2,1.3
		C504.3,1360.7,504.5,1361.8,504.7,1363z"/>
</g>
</svg>
