<?xml version="1.0" encoding="utf-8"?>
<!-- Generator: Adobe Illustrator 26.0.3, SVG Export Plug-In . SVG Version: 6.00 Build 0)  -->
<svg version="1.1" id="Layer_1" xmlns="http://www.w3.org/2000/svg" xmlns:xlink="http://www.w3.org/1999/xlink" x="0px" y="0px"
	 viewBox="0 0 300 1000" style="enable-background:new 0 0 300 1000;" xml:space="preserve">
<style type="text/css">
	.st0{fill:#56BDC9;}
</style>
<g>
	<path class="st0" d="M273.1,738.4c-13.7-10.1-28.6-14.8-45.7-11.6c-16.1,3-28.2,11.6-36.6,25.6c-1.8,2.9-2.4,5.1-5.8,1.1
		c-13.9-15.8-31.4-20.5-49.4-13.7s-27.8,21.8-28,43c-0.1,33.5,0,67.1,0,100.6c0,13.3-6.6,17.2-18.1,10.5
		c-47.5-27.7-70.5-69.2-68.1-123.8c2.8-60.2,52.8-112,113.1-119.3c58.1-7.1,113.8,23.7,137.2,81.5
		C272.7,734.2,273.9,736.1,273.1,738.4L273.1,738.4z"/>
	<path class="st0" d="M112.4,903.4c7.6-8.5,7.6-18.7,7.5-29.2c-0.4-19.6-0.3-39.2-0.3-58.7c0-1.4,0.1-2.8,0.3-5.1
		c6.7,5.2,13,9.5,20.6,11.4c26.7,6.5,53-13.8,53.9-41.4c0.8-24.9,15.4-41,40-43.7c23.8-2.5,45.3,16.2,46.2,40.4
		c2.3,60.4-44.2,118.6-103.5,129.6C153.5,911.1,130,910,112.4,903.4z"/>
	<path class="st0" d="M273.1,738.4c0.3,0.1,0.6,0.3,0.9,0.4C273.3,739.9,273.4,738.7,273.1,738.4L273.1,738.4z"/>
</g>
</svg>
